# xmcd CD database file
#
# Track frame offsets:
#	150
#	6042
#	16635
#	22880
#	37627
#	48885
#	62145
#	74437
#	85892
#	98442
#	112530
#	136052
#	144972
#	154555
#	168037
#	180902
#	196597
#	207762
#	222550
#	236630
#	245330
#	260927
#
# Disc length: 3600 seconds
#
# Revision: 0
# Processed by: cddbd v1.5.1PL0 Copyright (c) Steve Scherf et al.
# Submitted via: CDex 1.51
#
DISCID=030e0e16
DTITLE=Choir of Southwark Cathedral - The Message of Christmas
DYEAR=1996
DGENRE=Christmas
TTITLE0=The Promise of Eden - Adam lay y-bounden (Boris Ord)
TTITLE1=The Promise of Eden - Adam lay y-bounden (Philip Ledger)
TTITLE2=The Promise of Eden - Adam lay y-bounden (Peter Warlock)
TTITLE3=The Promise of Eden - The Lord at first did Adam Make (arr.Willcocks)
TTITLE4=The Annunciation - Gabriel's Message (arr.Pettman)
TTITLE5=The Annunciation - I Sing of a Maiden (Hadley)
TTITLE6=The Annunciation - I Sing of a Maiden (Berkeley)
TTITLE7=The Annunciation - There is No Rose (15th. Century anon.)
TTITLE8=The Annunciation - There is No Rose (Joubert)
TTITLE9=The Shepherds go to The Manger - Shepherd's Pipe Carol (Rutter)
TTITLE10=The Stable - In the Bleak Mid-Winter (Darke)
TTITLE11=The Stable - Tomorrow Shall Be My Dancing Day (arr.Willcocks)
TTITLE12=The Stable - Tomorrow Shall Be My Dancing Day (Gardiner)
TTITLE13=The Stable - Lute-Book Lullaby (Maixm)
TTITLE14=The Wise Men - Three Kings (Cornelius)
TTITLE15=The Wise Men - Here is the Little Door (Howells)
TTITLE16=The Wise Men - Coventry Carol (16th. Century English)
TTITLE17=The Wise Men - Lully, Lulla (Leighton)
TTITLE18=The Life of Christ - Joys Seven (arr.Cleobury)
TTITLE19=The Message of Christmas - Wassail Carol (Mathias)
TTITLE20=The Message of Christmas - The Lamb (Tavener)
TTITLE21=The Message of Christmas - Sussex Carol (arr.Ledger)
EXTD=YEAR: 1996
EXTT0=
EXTT1=
EXTT2=
EXTT3=
EXTT4=
EXTT5=
EXTT6=
EXTT7=
EXTT8=
EXTT9=
EXTT10=
EXTT11=
EXTT12=
EXTT13=
EXTT14=
EXTT15=
EXTT16=
EXTT17=
EXTT18=
EXTT19=
EXTT20=
EXTT21=
PLAYORDER=
